<?xml version="1.0" encoding="utf-8"?>
<!-- Generator: Adobe Illustrator 26.0.3, SVG Export Plug-In . SVG Version: 6.00 Build 0)  -->
<svg version="1.1" id="Layer_1" xmlns="http://www.w3.org/2000/svg" xmlns:xlink="http://www.w3.org/1999/xlink" x="0px" y="0px"
	 viewBox="0 0 600 183" style="enable-background:new 0 0 600 183;" xml:space="preserve">
<g>
	<path d="M36.5,44.2h29.7V30.5c0-4.6-1.6-7-4.7-7c-0.4,0-1,0.1-2,0.2c-1,0.1-1.8,0.2-2.5,0.2c-2,0-3-1-3-3c0-2.2,1.3-3.3,4-3.3
		c0.9,0,2.4,0.2,4.7,0.6c2.3,0.4,4.4,0.6,6.3,0.6c3.1,0,6.2-0.3,9.3-0.8c1.8-0.3,3-0.4,3.5-0.4c2.7,0,4.1,1.1,4.1,3.3c0,2-1,3-2.9,3
		c-0.5,0-1.2-0.1-2.2-0.2c-1-0.1-1.7-0.2-2.2-0.2c-3.2,0-4.7,2.3-4.7,7v37c0,4.6,1.5,7,4.6,7c0.5,0,1.3-0.1,2.3-0.2
		c1-0.2,1.8-0.2,2.3-0.2c1.9,0,2.9,1,2.9,3c0,2.2-1.4,3.3-4.1,3.3c-0.6,0-1.8-0.2-3.6-0.6c-2.2-0.4-4.5-0.6-7-0.6
		c-3.4,0-6.3,0.2-8.6,0.6c-2.7,0.4-4.2,0.6-4.5,0.6c-2.7,0-4.1-1.1-4.1-3.3c0-2,1-3,3-3c0.5,0,1.2,0.1,2.2,0.2
		c1,0.1,1.7,0.2,2.2,0.2c2.6,0,4.1-1.7,4.6-5.1c0.1-0.4,0.1-3.2,0.1-8.3V50.5H36.5V61c0,5.1,0,7.9,0.1,8.3c0.5,3.4,2,5.1,4.6,5.1
		c0.5,0,1.3-0.1,2.3-0.2c1-0.2,1.8-0.2,2.3-0.2c1.9,0,2.9,1,2.9,3c0,2.2-1.4,3.3-4.1,3.3c-0.4,0-1.8-0.2-4-0.6
		c-3-0.5-5.6-0.7-7.8-0.7c-2.6,0-5.4,0.2-8.3,0.7l-2.2,0.4c-0.7,0.1-1.1,0.2-1.2,0.2c-2.8,0-4.3-1.1-4.3-3.3c0-0.8,0.3-1.5,0.9-2.1
		c0.6-0.6,1.3-0.9,2.1-0.9c0.6,0,1.4,0.1,2.5,0.2c0.7,0.2,1.3,0.2,1.9,0.2c3.2,0,4.7-2.3,4.7-7V30.4c0-4.6-1.6-7-4.7-7
		c-0.4,0-1.1,0.1-2,0.3c-0.9,0.2-1.7,0.3-2.4,0.3c-0.8,0-1.5-0.3-2.1-0.9c-0.6-0.6-0.9-1.3-0.9-2.1c0-2.2,1.4-3.2,4.3-3.2
		c0.6,0,1.7,0.2,3.4,0.5c2.3,0.4,5.2,0.6,8.6,0.6c1.3,0,3.2-0.2,5.8-0.6c2.6-0.4,4.5-0.6,5.7-0.6c2.7,0,4.1,1.1,4.1,3.3
		c0,0.9-0.3,1.6-0.8,2.1c-0.6,0.6-1.2,0.9-2,0.9c-0.7,0-1.5-0.1-2.5-0.2c-1-0.2-1.7-0.2-2-0.2c-3,0-4.6,2.3-4.6,7L36.5,44.2z"/>
	<path d="M131.1,81.1c-5.1,0-8.2-2.2-9.4-6.6c-3.2,4.6-8.1,7-14.8,7c-5,0-9-1.2-12-3.7c-3-2.5-4.5-5.8-4.5-9.9
		c0-5.1,2.2-8.9,6.6-11.3c1.7-0.9,3.1-1.5,4.3-1.8c1.2-0.3,3.6-0.6,7.3-1.1c5.2-0.6,8.6-1.3,10.2-2.3c1.6-1,2.4-2.8,2.4-5.5
		c0-2.5-0.9-4.5-2.6-6c-1.8-1.5-4.2-2.2-7.4-2.2c-2.8,0-5.4,0.8-7.8,2.3c-0.9,0.6-1.4,1.3-1.4,1.9c0,0.2,0.3,0.6,0.8,0.9
		c0.9,0.6,1.3,1.7,1.3,3.2c0,1.2-0.4,2.3-1.3,3.1c-0.9,0.8-2,1.2-3.4,1.2c-1.6,0-3-0.6-4-1.7c-1.1-1.1-1.6-2.5-1.6-4.1
		c0-3.5,1.7-6.4,5.1-8.9c3.4-2.5,7.6-3.7,12.5-3.7c11.2,0,16.9,5.4,16.9,16.2v18.7c0,3,0.1,4.7,0.2,5.3c0.4,2.2,1.4,3.2,3.2,3.2
		c2.2,0,3.2-2,3.2-5.9v-4.5c0-2,0.9-2.9,2.8-2.9c2,0,3,1.5,3,4.4v0.5v5.3C140.4,78.1,137.3,81.1,131.1,81.1z M120.8,62.6V56
		c-1.4,1.2-2.8,2.1-4.3,2.6c-1.5,0.5-4.2,0.9-8.1,1.3c-7,0.7-10.5,3.3-10.5,7.8c0,2.3,0.8,4.2,2.5,5.6c1.7,1.4,4,2,6.9,2
		c4.1,0,7.4-1.1,9.8-3.4C119.5,69.7,120.8,66.6,120.8,62.6z"/>
	<path d="M157.5,36.2v2.5c3.2-4.5,7.5-6.8,12.9-6.8c4.3,0,7.8,1.2,10.5,3.7c2.7,2.4,4,5.6,4,9.4c0,2.7-0.7,4.9-2,6.6
		c-1.4,1.7-3.2,2.5-5.4,2.5c-1.4,0-2.6-0.4-3.6-1.3c-1-0.9-1.5-1.9-1.5-3.2c0-1,0.4-1.9,1.1-2.6c0.7-0.8,1.6-1.2,2.6-1.2
		c0.2,0,0.6,0.1,1.2,0.3c0.4-0.7,0.6-1.4,0.6-2c0-1.8-0.8-3.3-2.4-4.5c-1.6-1.2-3.5-1.9-5.9-1.9c-4.8,0-8,2.2-9.6,6.5
		c-1,2.7-1.5,6.7-1.5,12.1v6.1c0,4.1,0,6.5,0.1,7c0.3,3.5,1.3,5.3,2.9,5.3c0.8,0,1.6-0.1,2.5-0.3c0.7-0.2,1.3-0.2,1.8-0.2
		c2,0,3,1,3,2.9c0,2.1-1.3,3.2-3.8,3.2h-0.4c-0.9,0-2.3-0.1-4.2-0.3c-1.9-0.2-3.3-0.3-4.2-0.3c-2.5,0-4.4,0.1-5.8,0.2l-5.2,0.5
		c-2.5,0-3.8-1.1-3.8-3.2c0-1.9,1.2-2.9,3.6-2.9c0.6,0,1.1,0,1.4,0.1l1.4,0.3c0.6,0.1,1.1,0.2,1.3,0.2c1.6,0,2.4-1.4,2.5-4.3v-4.7
		l-0.3-21c-0.2-3.6-1.1-5.5-2.8-5.5c-0.5,0-1.2,0.1-2,0.3c-0.9,0.2-1.5,0.3-2,0.3c-2,0-3.1-1-3.1-3c0-2.2,1.3-3.2,4-3.2
		c0.6,0,1.5,0.1,2.8,0.2c1.2,0.2,2.2,0.2,2.8,0.2c0.5,0,1.3-0.1,2.4-0.2c0.5-0.2,1.1-0.2,1.8-0.2C156.7,33.5,157.5,34.4,157.5,36.2z
		"/>
	<path d="M202.9,44.4l10.8,29.1l10.5-28.9c0.6-1.7,0.9-2.8,0.9-3.3c0-1.4-0.6-2-1.9-2c-0.5,0-1.2,0.1-2.2,0.3
		c-1,0.2-1.7,0.3-2.2,0.3c-2,0-3.1-1-3.1-3c0-2.1,1.5-3.2,4.4-3.2c0.1,0,0.4,0,0.7,0c0.3,0,0.6,0.1,0.7,0.1l3.9,0.4
		c0.9,0.2,1.8,0.4,2.7,0.4c1.2,0,3.3-0.2,6.1-0.5c1.7-0.2,3-0.3,3.7-0.3c2.7,0,4,1,4,3.1c0,2.1-1.1,3.1-3.2,3.1
		c-0.7,0-1.2-0.1-1.5-0.2c-0.9-0.2-1.6-0.3-1.9-0.3c-1.1,0-2.3,1.5-3.4,4.5l-13.1,33.4c-1.1,2.8-3,4.3-5.7,4.3
		c-2.5,0-4.4-1.4-5.5-4.3l-13.4-34.5c-0.9-2.3-1.9-3.4-3.1-3.4c-0.4,0-1.1,0.1-1.9,0.3c-0.9,0.2-1.5,0.3-1.9,0.3c-2,0-3.1-1-3.1-2.9
		c0-2.2,1.4-3.3,4.3-3.3c0.5,0,0.9,0,1.1,0.1l3.9,0.5c1.3,0.2,2.6,0.2,3.9,0.2c1.1,0,2.6-0.1,4.6-0.4l3.1-0.4
		c0.3-0.1,0.7-0.1,1.3-0.1c2.7,0,4.1,1.1,4.1,3.2c0,2-1.2,3-3.5,3c-0.7,0-1.3,0-1.6-0.1c-1.2-0.3-1.9-0.4-2.2-0.4
		c-1,0-1.5,0.4-1.5,1.3c0,0.4,0.1,1.1,0.4,1.9L202.9,44.4z"/>
	<path d="M285.6,52.6c0,2.4-0.2,3.8-0.5,4.3c-0.3,0.5-1.2,0.8-2.7,0.8h-29.5c-0.8,0-1.3,0.1-1.6,0.3c-0.2,0.2-0.4,0.6-0.4,1.1
		c0,4.6,1.4,8.5,4.2,11.6c2.8,3.1,6.2,4.6,10.4,4.6c2.7,0,5.2-0.7,7.5-2.2c2.3-1.5,3.7-3.4,4.4-5.7l0.8-2.7c0.4-1.5,1.5-2.2,3.1-2.2
		c2.3,0,3.4,1.2,3.4,3.5c0,4-2,7.6-6.1,10.7c-4.1,3.1-8.7,4.7-13.9,4.7c-6.5,0-11.7-2.2-15.5-6.5c-3.8-4.4-5.7-10.2-5.7-17.6
		c0-7.5,2-13.7,6.1-18.4c4.1-4.7,9.4-7,15.9-7c5.8,0,10.6,1.9,14.4,5.8C283.7,41.7,285.6,46.6,285.6,52.6z M251.9,50.2
		c0,0.9,0.7,1.3,2,1.3h22.2c1.3,0,1.9-0.4,1.9-1.3c0-3.3-1.2-6.1-3.7-8.5c-2.5-2.4-5.4-3.6-8.7-3.6c-3.5,0-6.6,1.3-9.5,3.8
		C253.3,44.3,251.9,47.1,251.9,50.2z"/>
	<path d="M307.1,42.4l10.7,31.3L329,42.9c0.3-0.9,0.5-1.5,0.5-2c0-1.1-0.7-1.6-2.1-1.6c-0.7,0-1.3,0.1-1.8,0.2
		c-1,0.1-1.6,0.2-1.9,0.2c-2,0-3.1-1-3.1-3c0-2.1,1.3-3.2,4-3.2c0.4,0,1,0.1,1.9,0.2l3.3,0.5c0.9,0.1,1.8,0.2,2.8,0.2
		c1.1,0,2.6-0.1,4.6-0.4c2-0.3,3.6-0.4,4.6-0.4c2.7,0,4,1,4,3.1c0,2-1,3-3.1,3c-0.6,0-1.1-0.1-1.4-0.2c-0.8-0.2-1.4-0.3-1.7-0.3
		c-1.2,0-2.4,1.6-3.6,4.7l-12.6,31.5c-2.8,7-5.4,12.1-7.9,15.2c-4.2,5.4-9.5,8.1-15.8,8.1c-3.8,0-6.9-1-9.5-2.9
		c-2.6-1.9-3.8-4.2-3.8-7c0-1.9,0.6-3.5,1.7-4.7c1.1-1.2,2.6-1.8,4.4-1.8c1.4,0,2.6,0.4,3.5,1.3c0.9,0.8,1.4,1.9,1.4,3.1
		c0,2-0.9,3.2-2.7,3.8c0.9,1.4,2.7,2,5.3,2c3.3,0,6.2-1.2,8.9-3.7c2.6-2.4,3.9-5.2,3.9-8.2c0-1.5-0.8-4.4-2.5-8.6l-10.2-25.8l-1.1-3
		c-1.1-2.8-2.3-4.2-3.6-4.2c-0.4,0-1,0.1-2,0.2c-1,0.2-1.6,0.2-1.9,0.2c-2.2,0-3.2-1-3.2-3c0-2.1,1.4-3.2,4.3-3.2
		c0.9,0,1.6,0,2.1,0.1l3.7,0.5c0.1,0,0.3,0,0.7,0c0.4,0.1,0.8,0.1,1.1,0.1c2.2,0,4.6-0.1,7.1-0.4c1.9-0.2,3.2-0.3,3.8-0.3
		c2.6,0,3.9,1,3.9,3.1c0,2-1.2,3.1-3.5,3.1c-0.4,0-1-0.1-1.8-0.2c-0.8-0.1-1.4-0.2-1.8-0.2c-0.9,0-1.3,0.4-1.3,1.3
		C306.7,41,306.8,41.7,307.1,42.4z"/>
	<path d="M34.6,145.5v-4c0-1.7,0.8-2.5,2.2-2.5c1.4,0,2.2,0.9,2.2,2.8c0,4.5-0.6,7.6-1.7,9.4c-1.6,2.4-4.1,3.6-7.7,3.6
		c-3.3,0-5.6-1.1-7-3.2c-1-1.5-1.5-4.1-1.5-7.8v-14.8c0-0.9-0.4-1.3-1.2-1.3h-2c-0.7,0-1.2-0.2-1.7-0.6c-0.4-0.4-0.7-1-0.7-1.6
		c0-0.6,0.2-1.1,0.6-1.5c0.4-0.5,0.9-0.7,1.5-0.7h2.4c0.7,0,1.1-0.4,1.1-1.2v-6.4c0-1.6,0.8-2.3,2.4-2.3c1.5,0,2.2,0.8,2.2,2.3v6.6
		c0,0.6,0.4,0.9,1.1,0.9h6.7c1.6,0,2.3,0.7,2.3,2.2c0,1.5-0.8,2.3-2.5,2.3h-6.8c-0.6,0-0.9,0.4-0.9,1.3v15.2c0,4.3,1.4,6.5,4.3,6.5
		C33,150.8,34.5,149,34.6,145.5z"/>
	<path d="M51.8,114.2l-0.2,12c1.7-1.6,3.2-2.6,4.5-3.2c1.4-0.6,3-0.9,4.8-0.9c3.6,0,6.4,1,8.6,3c2.1,2,3.2,4.7,3.2,8v10.3
		c0,2.4,0,3.8,0.1,4c0.2,2.1,0.7,3.1,1.6,3.1c0.3,0,0.8-0.1,1.4-0.3c0.2-0.1,0.6-0.1,1-0.1c1.5,0,2.3,0.7,2.3,2.1c0,1.4-1,2.1-3,2.1
		c-0.5,0-1.3-0.1-2.3-0.2c-1.7-0.2-3.1-0.3-4.2-0.3s-1.9,0-2.5,0.1c-1.7,0.2-2.8,0.4-3.2,0.4c-0.7,0-1.4-0.2-1.9-0.6
		c-0.5-0.4-0.7-1-0.7-1.6c0-0.5,0.2-1,0.6-1.4c0.4-0.4,0.9-0.6,1.5-0.6c0.5,0,1,0.1,1.6,0.3c0.4,0.1,0.7,0.2,1.1,0.2
		c1.2,0,1.9-1.3,1.9-4c0-0.5,0-1.5,0.1-2.9V141v-3.3c0-4.2-0.4-7-1.2-8.5c-1.2-2.1-3.3-3.2-6.3-3.2c-3.3,0-5.6,1.1-7.1,3.3
		c-1,1.5-1.6,4-1.6,7.4v4.5c0,0.2-0.1,0.7-0.2,1.2c0,0.5,0,0.9,0,1.2c0,2.3,0,3.7,0.1,4.1c0.2,2,0.8,3,1.8,3c0.3,0,0.8-0.1,1.4-0.3
		c0.6-0.2,1.1-0.3,1.4-0.3c1.4,0,2,0.7,2,2c0,1.5-0.9,2.2-2.7,2.2c-0.6,0-1.5-0.1-2.6-0.2c-1.6-0.2-2.9-0.2-4-0.2
		c-0.7,0-1.7,0.1-2.9,0.2c-1.7,0.2-2.7,0.2-3.2,0.2c-1.7,0-2.6-0.8-2.6-2.3c0-1.3,0.8-1.9,2.4-1.9c0.5,0,0.9,0.1,1.2,0.2
		c0.7,0.2,1.2,0.3,1.5,0.3c0.7,0,1.1-0.6,1.4-1.9c0.2-1.3,0.4-3.8,0.4-7.7v-11.1c0-6.2-0.1-10.1-0.4-11.7c-0.2-1.6-0.8-2.4-1.7-2.4
		c-0.3,0-0.7,0.1-1.3,0.2c-0.6,0.1-1,0.2-1.4,0.2c-1.4,0-2.1-0.7-2.1-2c0-0.6,0.2-1.1,0.7-1.5c0.5-0.4,1.1-0.6,1.8-0.6
		c0.2,0,0.9,0.1,2.1,0.2c0.8,0.1,1.6,0.1,2.5,0.1c0.4,0,0.9-0.1,1.5-0.2c0.7-0.1,1.1-0.2,1.4-0.2c0.9,0,1.4,0.7,1.4,2V114.2z"/>
	<path d="M109.6,135.9c0,1.6-0.1,2.5-0.3,2.9c-0.2,0.4-0.8,0.5-1.8,0.5H87.9c-0.5,0-0.9,0.1-1.1,0.2c-0.2,0.1-0.2,0.4-0.2,0.7
		c0,3.1,0.9,5.7,2.8,7.7c1.9,2.1,4.2,3.1,6.9,3.1c1.8,0,3.5-0.5,5-1.5c1.5-1,2.5-2.2,2.9-3.8l0.6-1.8c0.3-1,1-1.5,2-1.5
		c1.5,0,2.3,0.8,2.3,2.3c0,2.7-1.4,5.1-4.1,7.1c-2.7,2.1-5.8,3.1-9.3,3.1c-4.3,0-7.8-1.5-10.3-4.4c-2.6-2.9-3.8-6.8-3.8-11.7
		c0-5,1.4-9.1,4.1-12.2c2.7-3.1,6.3-4.7,10.6-4.7c3.9,0,7.1,1.3,9.6,3.9C108.3,128.6,109.6,131.9,109.6,135.9z M87.2,134.3
		c0,0.6,0.5,0.9,1.4,0.9h14.8c0.9,0,1.3-0.3,1.3-0.9c0-2.2-0.8-4.1-2.5-5.7c-1.6-1.6-3.6-2.4-5.8-2.4c-2.3,0-4.4,0.8-6.3,2.5
		C88.1,130.3,87.2,132.2,87.2,134.3z"/>
	<path d="M143.8,155.1c-4.3,0-7.8-1.5-10.4-4.5c-2.6-3-3.9-7-3.9-12c0-5,1.3-9,3.9-12c2.6-3,6.1-4.5,10.5-4.5c4.5,0,8,1.5,10.6,4.4
		c2.6,2.9,3.9,6.9,3.9,11.9c0,5-1.3,9.1-4,12.1C151.9,153.6,148.3,155.1,143.8,155.1z M144.2,126.2c-2.9,0-5.2,1-6.8,3
		c-1.6,2-2.6,4.9-2.7,8.6v0.8c0,3.9,0.8,6.9,2.4,9.1c1.6,2.2,3.9,3.3,6.8,3.3c3,0,5.4-1.1,7.1-3.3c1.7-2.2,2.6-5.3,2.6-9.2
		C153.5,130.3,150.4,126.2,144.2,126.2z"/>
	<path d="M181.7,117.5c0-0.6,0.2-1.1,0.6-1.5c-0.7-0.7-1.7-1-3.1-1c-1.8,0-3.2,0.6-4.2,1.7c-1,1.1-1.5,2.7-1.5,4.7v1.1
		c0,0.5,0.3,0.8,0.8,0.8h4.8c1.4,0,2,0.7,2,2.2c0,1.5-0.7,2.2-2,2.2h-4.6c-0.7,0-1.1,0.4-1.1,1.1v17.3c0,1.5,0,2.4,0.1,2.7
		c0.2,1.1,0.7,1.7,1.5,1.7c0.2,0,0.7-0.1,1.5-0.3c0.6-0.1,1-0.1,1.2-0.1c1.4,0,2.1,0.7,2.1,2c0,1.4-0.8,2.2-2.5,2.2
		c-0.7,0-1.8-0.1-3.2-0.2s-2.5-0.2-3.2-0.2c-1.2,0-2.3,0.1-3.3,0.2c-1.6,0.2-2.6,0.3-3.1,0.3c-1.8,0-2.7-0.7-2.7-2.2
		c0-0.5,0.2-1,0.6-1.4c0.4-0.4,0.9-0.6,1.5-0.6c0.4,0,0.9,0.1,1.4,0.2c0.5,0.1,1,0.2,1.4,0.2c0.8,0,1.3-0.5,1.5-1.5
		c0.2-1,0.3-3.4,0.4-7.2v-13c0-0.7-0.4-1.1-1.1-1.1h-3.1c-1.4,0-2.1-0.8-2.1-2.3c0-1.4,0.7-2.2,2.2-2.2h3.5c0.5,0,0.8-0.3,0.8-0.8
		v-1.1c0-3.3,0.9-5.7,2.6-7.5c1.7-1.7,4.2-2.6,7.4-2.6c2.6,0,4.7,0.5,6.2,1.6c1.6,1.1,2.3,2.5,2.3,4.2c0,0.9-0.3,1.6-0.9,2.2
		c-0.6,0.6-1.3,0.8-2.2,0.8c-0.8,0-1.5-0.3-2.1-0.8C181.9,118.9,181.7,118.2,181.7,117.5z"/>
	<path d="M203.7,117.5c0-0.6,0.2-1.1,0.6-1.5c-0.7-0.7-1.7-1-3.1-1c-1.8,0-3.2,0.6-4.2,1.7c-1,1.1-1.5,2.7-1.5,4.7v1.1
		c0,0.5,0.3,0.8,0.8,0.8h4.8c1.4,0,2,0.7,2,2.2c0,1.5-0.7,2.2-2,2.2h-4.6c-0.7,0-1.1,0.4-1.1,1.1v17.3c0,1.5,0,2.4,0.1,2.7
		c0.2,1.1,0.7,1.7,1.5,1.7c0.2,0,0.7-0.1,1.5-0.3c0.6-0.1,1-0.1,1.2-0.1c1.4,0,2.1,0.7,2.1,2c0,1.4-0.8,2.2-2.5,2.2
		c-0.7,0-1.8-0.1-3.2-0.2s-2.5-0.2-3.2-0.2c-1.2,0-2.3,0.1-3.3,0.2c-1.6,0.2-2.6,0.3-3.1,0.3c-1.8,0-2.7-0.7-2.7-2.2
		c0-0.5,0.2-1,0.6-1.4c0.4-0.4,0.9-0.6,1.5-0.6c0.4,0,0.9,0.1,1.4,0.2c0.5,0.1,1,0.2,1.4,0.2c0.8,0,1.3-0.5,1.5-1.5
		c0.2-1,0.3-3.4,0.4-7.2v-13c0-0.7-0.4-1.1-1.1-1.1h-3.1c-1.4,0-2.1-0.8-2.1-2.3c0-1.4,0.7-2.2,2.2-2.2h3.5c0.5,0,0.8-0.3,0.8-0.8
		v-1.1c0-3.3,0.9-5.7,2.6-7.5c1.7-1.7,4.2-2.6,7.4-2.6c2.6,0,4.7,0.5,6.2,1.6c1.6,1.1,2.3,2.5,2.3,4.2c0,0.9-0.3,1.6-0.9,2.2
		c-0.6,0.6-1.3,0.8-2.2,0.8c-0.8,0-1.5-0.3-2.1-0.8C204,118.9,203.7,118.2,203.7,117.5z"/>
	<path d="M218.6,136.1v8c0,2.1,0,3.3,0.1,3.6c0.2,1.9,0.8,2.8,1.7,2.8c0.2,0,0.7-0.1,1.5-0.3c0.2-0.1,0.5-0.1,0.9-0.1
		c1.6,0,2.3,0.7,2.3,2c0,0.6-0.3,1.1-0.8,1.5c-0.5,0.4-1.2,0.6-2,0.6c-0.7,0-1.7-0.1-3-0.3c-1.3-0.2-2.3-0.3-3-0.3
		c-1.1,0-2.3,0.1-3.6,0.2c-1.6,0.2-2.7,0.3-3.2,0.3c-1.7,0-2.5-0.7-2.5-2.1c0-1.4,0.7-2,2.1-2c0.3,0,0.8,0.1,1.5,0.2
		c0.6,0.1,1.1,0.2,1.5,0.2c1,0,1.6-1.3,1.8-4c0-0.2,0-2,0-5.4v-5.1c0-3.4,0-5.2,0-5.4c-0.2-2.6-0.8-3.9-1.9-3.9
		c-0.3,0-0.8,0.1-1.4,0.2c-0.6,0.1-1,0.2-1.3,0.2c-1.5,0-2.2-0.7-2.2-2c0-1.4,0.9-2.1,2.7-2.1c0.8,0,1.3,0,1.7,0.1
		c1.3,0.2,2.2,0.2,2.5,0.2c0.3,0,0.8-0.1,1.5-0.2c0.7-0.1,1.2-0.2,1.5-0.2c1.2,0,1.8,0.8,1.8,2.4c0,0.2,0,0.4,0,0.7
		c0,0.3,0,0.6,0,0.7c0,0.3-0.1,1.6-0.1,3.8C218.6,132.6,218.6,134.3,218.6,136.1z M215.4,119.9c-0.9,0-1.8-0.3-2.4-1
		c-0.7-0.7-1-1.5-1-2.4c0-0.9,0.3-1.8,1-2.4c0.7-0.7,1.5-1,2.4-1c0.9,0,1.8,0.3,2.4,1c0.7,0.7,1,1.5,1,2.4c0,0.9-0.3,1.8-1,2.4
		C217.1,119.6,216.3,119.9,215.4,119.9z"/>
	<path d="M245.7,133.6c0-1.6,1-2.6,3.1-2.8c-0.2-1.4-0.9-2.6-2.1-3.4c-1.2-0.8-2.7-1.2-4.5-1.2c-2.8,0-5.1,1.1-6.9,3.4
		c-1.7,2.3-2.6,5.3-2.6,9c0,3.9,0.8,6.9,2.4,9.1c1.6,2.2,3.9,3.3,6.8,3.3c1.8,0,3.4-0.5,4.7-1.5c1.3-1,2.3-2.5,2.8-4.3
		c0.4-1.4,0.7-2.3,0.7-2.5c0.5-0.8,1.1-1.2,2-1.2c0.7,0,1.3,0.2,1.7,0.7c0.5,0.5,0.7,1,0.7,1.7c0,1-0.3,2.3-1,3.7
		c-0.7,1.4-1.4,2.6-2.3,3.6c-2.4,2.6-5.6,3.9-9.5,3.9c-4.2,0-7.6-1.5-10.2-4.5c-2.6-3-3.9-6.9-3.9-11.7c0-5.1,1.3-9.2,4-12.3
		c2.7-3.1,6.2-4.6,10.6-4.6c3.3,0,6,0.9,8.2,2.7c2.2,1.8,3.3,4.1,3.3,6.8c0,1.5-0.4,2.8-1.3,3.8c-0.8,1-1.9,1.5-3.2,1.5
		c-1,0-1.9-0.3-2.6-0.9C246,135.3,245.7,134.5,245.7,133.6z"/>
	<path d="M287.3,135.9c0,1.6-0.1,2.5-0.3,2.9c-0.2,0.4-0.8,0.5-1.8,0.5h-19.7c-0.5,0-0.9,0.1-1.1,0.2c-0.2,0.1-0.2,0.4-0.2,0.7
		c0,3.1,0.9,5.7,2.8,7.7c1.9,2.1,4.2,3.1,6.9,3.1c1.8,0,3.5-0.5,5-1.5c1.5-1,2.5-2.2,2.9-3.8l0.6-1.8c0.3-1,1-1.5,2-1.5
		c1.5,0,2.3,0.8,2.3,2.3c0,2.7-1.4,5.1-4.1,7.1c-2.7,2.1-5.8,3.1-9.3,3.1c-4.3,0-7.8-1.5-10.3-4.4c-2.6-2.9-3.8-6.8-3.8-11.7
		c0-5,1.4-9.1,4.1-12.2c2.7-3.1,6.3-4.7,10.6-4.7c3.9,0,7.1,1.3,9.6,3.9C286,128.6,287.3,131.9,287.3,135.9z M264.9,134.3
		c0,0.6,0.5,0.9,1.4,0.9H281c0.9,0,1.3-0.3,1.3-0.9c0-2.2-0.8-4.1-2.5-5.7c-1.6-1.6-3.6-2.4-5.8-2.4c-2.3,0-4.4,0.8-6.3,2.5
		C265.8,130.3,264.9,132.2,264.9,134.3z"/>
	<path d="M325.3,133.6c0-1.6,1-2.6,3.1-2.8c-0.2-1.4-0.9-2.6-2.1-3.4c-1.2-0.8-2.7-1.2-4.5-1.2c-2.8,0-5.1,1.1-6.9,3.4
		c-1.7,2.3-2.6,5.3-2.6,9c0,3.9,0.8,6.9,2.4,9.1c1.6,2.2,3.9,3.3,6.8,3.3c1.8,0,3.4-0.5,4.7-1.5c1.3-1,2.3-2.5,2.8-4.3
		c0.4-1.4,0.7-2.3,0.7-2.5c0.5-0.8,1.1-1.2,2-1.2c0.7,0,1.3,0.2,1.7,0.7c0.5,0.5,0.7,1,0.7,1.7c0,1-0.3,2.3-1,3.7
		c-0.7,1.4-1.4,2.6-2.3,3.6c-2.4,2.6-5.6,3.9-9.5,3.9c-4.2,0-7.6-1.5-10.2-4.5c-2.6-3-3.9-6.9-3.9-11.7c0-5.1,1.3-9.2,4-12.3
		c2.7-3.1,6.2-4.6,10.6-4.6c3.3,0,6,0.9,8.2,2.7c2.2,1.8,3.3,4.1,3.3,6.8c0,1.5-0.4,2.8-1.3,3.8c-0.8,1-1.9,1.5-3.2,1.5
		c-1,0-1.9-0.3-2.6-0.9C325.6,135.3,325.3,134.5,325.3,133.6z"/>
	<path d="M353.1,155.1c-4.3,0-7.8-1.5-10.4-4.5c-2.6-3-3.9-7-3.9-12c0-5,1.3-9,3.9-12c2.6-3,6.1-4.5,10.5-4.5c4.5,0,8,1.5,10.6,4.4
		c2.6,2.9,3.9,6.9,3.9,11.9c0,5-1.3,9.1-4,12.1C361.1,153.6,357.5,155.1,353.1,155.1z M353.4,126.2c-2.9,0-5.2,1-6.8,3
		c-1.6,2-2.6,4.9-2.7,8.6v0.8c0,3.9,0.8,6.9,2.4,9.1c1.6,2.2,3.9,3.3,6.8,3.3c3,0,5.4-1.1,7.1-3.3c1.7-2.2,2.6-5.3,2.6-9.2
		C362.8,130.3,359.6,126.2,353.4,126.2z"/>
	<path d="M381.9,125v1.8c1.5-1.8,2.9-3,4.2-3.7c1.3-0.7,3-1,4.9-1c4,0,7,1.6,8.9,4.7c1.4-1.7,2.8-2.9,4.3-3.6
		c1.4-0.7,3.3-1.1,5.6-1.1c2.3,0,4.4,0.5,6.3,1.5c2.1,1.1,3.5,2.7,4.3,4.7c0.5,1.4,0.8,3.5,0.8,6.4v6v4.6c0,1.7,0,2.7,0.1,3.1
		c0.2,1.5,0.7,2.2,1.6,2.2c0.3,0,0.7-0.1,1.3-0.2c0.6-0.1,1-0.2,1.3-0.2c1.4,0,2.1,0.6,2.1,1.9c0,1.4-0.8,2.2-2.5,2.2
		c-0.6,0-1.6-0.1-2.8-0.2c-1.3-0.1-2.2-0.2-2.9-0.2c-0.7,0-1.7,0.1-3.1,0.2c-1.3,0.1-2.4,0.2-3.1,0.2c-1.7,0-2.6-0.7-2.6-2.2
		c0-1.2,0.7-1.9,2-1.9c0.2,0,0.6,0,1.2,0.1c0.2,0.1,0.6,0.1,1,0.1c0.7,0,1.1-0.4,1.3-1.1c0.2-0.7,0.3-2.5,0.3-5.3v-3.8v-4.1
		c0-2.8-0.2-4.9-0.6-6.2c-0.4-1.3-1.2-2.3-2.4-3.1c-1.2-0.7-2.5-1.1-4.1-1.1c-2.9,0-4.9,1-6.1,3c-0.9,1.6-1.4,4.4-1.4,8.4v4.4
		c0,3.9,0.1,6.3,0.3,7.3c0.2,1,0.7,1.5,1.5,1.5c0.2,0,0.6,0,1.1-0.1c0.5-0.1,0.8-0.1,1.1-0.1c0.6,0,1.1,0.2,1.5,0.6
		c0.4,0.4,0.6,0.9,0.6,1.4c0,1.3-1,2-2.9,2c-0.6,0-1.5-0.1-2.8-0.2c-1.2-0.2-2.1-0.2-2.8-0.2c-0.9,0-1.8,0.1-2.8,0.2
		c-1,0.2-1.9,0.2-2.7,0.2c-1.7,0-2.5-0.7-2.5-2.1c0-1.3,0.6-1.9,1.9-1.9c0.5,0,0.8,0.1,1.1,0.2c0.6,0.2,1,0.3,1.3,0.3
		c1,0,1.5-1.1,1.5-3.2l0.2-2.9c0-0.9,0-1.8,0-2.7c0-0.7,0-1.1,0-1.2v-5.2c0-3.6-0.5-6.1-1.5-7.5c-1-1.4-2.7-2.1-5.2-2.1
		c-2.7,0-4.8,1-6.2,3c-1.2,1.6-1.8,4.4-1.8,8.4v8.3c0,1.7,0,2.6,0.1,2.9c0.2,1.4,0.6,2.1,1.4,2.1c0.2,0,0.6-0.1,1.3-0.3
		c0.1,0,0.2,0,0.4-0.1c0.2,0,0.3,0,0.4,0c1.6,0,2.4,0.7,2.4,2c0,1.3-0.9,2-2.8,2c-0.7,0-1.6-0.1-2.6-0.2c-1.4-0.2-2.6-0.2-3.6-0.2
		c-0.5,0-1.4,0.1-2.7,0.2c-1.8,0.2-2.8,0.2-3.2,0.2c-1.6,0-2.5-0.7-2.5-2.1c0-1.3,0.8-1.9,2.4-1.9c0.1,0,0.2,0,0.4,0
		c0.2,0,0.3,0.1,0.4,0.1l1.6,0.3c0,0,0.1,0.1,0.3,0.1c1.1,0,1.7-1,1.8-3v-3.5v-9.5c0-3.5-0.1-5.7-0.3-6.6c-0.2-0.9-0.7-1.3-1.5-1.3
		c-0.2,0-0.7,0.1-1.7,0.3c-0.4,0.1-0.7,0.1-1,0.1c-1.5,0-2.3-0.7-2.3-2c0-1.4,0.8-2.1,2.5-2.1c0.5,0,1.1,0,1.9,0.1
		c0.8,0.1,1.5,0.1,2,0.1c0.2,0,0.4,0,0.7,0c0.2,0,0.4,0,0.4,0l1.5-0.2h0.2C381.4,123.2,381.9,123.8,381.9,125z"/>
	<path d="M437.8,124.9v2c2.3-3.2,5.5-4.8,9.5-4.8c4.1,0,7.4,1.4,9.8,4.3c2.4,2.8,3.6,6.7,3.6,11.6c0,5.2-1.3,9.4-3.9,12.5
		c-2.6,3.1-6,4.7-10.4,4.7c-3.6,0-6.5-1.3-8.7-3.8v5.1c0,1.6,0,2.6,0.1,3c0.2,1.3,0.8,1.9,1.8,1.9c0.3,0,0.7-0.1,1.3-0.2
		s1-0.2,1.3-0.2c1.3,0,2,0.7,2,2c0,1.4-0.9,2-2.6,2c-0.6,0-1.5-0.1-2.8-0.2c-0.9-0.1-2.3-0.2-4.1-0.2c-1,0-1.8,0-2.5,0.1
		c-1.6,0.2-2.7,0.3-3.3,0.3c-0.7,0-1.3-0.2-1.8-0.6c-0.5-0.4-0.7-0.9-0.7-1.5c0-1.3,0.7-1.9,2.1-1.9c0.2,0,0.6,0.1,1.2,0.2
		c0.7,0.1,1.2,0.2,1.5,0.2c0.8,0,1.3-0.4,1.4-1.2c0.2-0.8,0.3-3,0.3-6.7v-23.9c0-1.9-0.6-2.8-1.6-2.8c-0.3,0-0.7,0.1-1.3,0.2
		c-0.6,0.1-1.1,0.2-1.4,0.2c-1.5,0-2.3-0.7-2.3-2c0-1.3,0.9-2,2.7-2c0.5,0,0.9,0,1.5,0.1c1,0.1,1.8,0.1,2.3,0.1c0.4,0,0.9,0,1.6-0.1
		s1.2-0.1,1.5-0.1C437.3,123.2,437.8,123.8,437.8,124.9z M438.7,132.5c-0.4,1.6-0.6,3.6-0.6,5.9c0,0.2,0,0.5-0.1,0.9
		c0,0.4,0,0.7,0,0.9c0,2.8,0.2,4.8,0.7,6c0.5,1.3,1.3,2.4,2.7,3.4c1.3,1,3,1.5,5,1.5c3,0,5.3-1.1,6.9-3.2c1.6-2.2,2.4-5.2,2.4-9.2
		c0-8.2-2.9-12.4-8.8-12.4c-2,0-3.7,0.6-5.3,1.8C440.1,129.1,439.1,130.6,438.7,132.5z"/>
	<path d="M490.7,152.5v-1.9c-2.2,3-5.4,4.5-9.7,4.5c-4.9,0-8.2-1.5-10.1-4.5c-0.8-1.3-1.3-2.9-1.4-4.6c0-0.9-0.1-2.7-0.1-5.4v-5.1
		c0-5.6-0.6-8.5-1.8-8.5c-0.2,0-0.6,0-1.2,0.1c-0.5,0.1-1,0.1-1.2,0.1c-1.5,0-2.2-0.7-2.2-2c0-1.3,0.9-1.9,2.7-1.9
		c0.4,0,1,0.1,1.8,0.2c0.8,0.1,1.4,0.2,1.8,0.2c0.4,0,1-0.1,1.9-0.2c0.6-0.1,1-0.1,1.1-0.1c1.3,0,1.9,0.8,1.9,2.3v1.3v4l-0.2,4.6v4
		c0,3.6,0.3,6.2,0.9,7.7c0.9,2.6,3.2,3.9,6.8,3.9c1.8,0,3.3-0.4,4.7-1.2c1.4-0.8,2.3-1.9,2.8-3.2c0.7-1.6,1-4.7,1-9.1v-3.4
		c0-2.5,0-3.8,0-4c-0.2-2-0.7-3-1.6-3c-0.5,0-0.8,0-1.1,0h-0.7c-1.4,0-2.2-0.6-2.2-1.9c0-1.4,0.8-2.1,2.4-2.1c0.4,0,0.9,0,1.7,0.1
		c0.8,0.1,1.3,0.1,1.7,0.1c0.3,0,0.8,0,1.5-0.1c0.7-0.1,1.2-0.1,1.5-0.1c1.2,0,1.9,0.7,1.9,2c0,0.6,0,1-0.1,1.4
		c-0.2,1.6-0.3,3.9-0.3,6.9v9.5c0,2.5,0,3.9,0.1,4.2c0.2,2.2,0.8,3.3,1.7,3.3c0.3,0,0.7-0.1,1.2-0.2c0.5-0.1,0.9-0.2,1.2-0.2
		c1.4,0,2.1,0.7,2.1,2c0,1.4-0.9,2.1-2.6,2.1c-0.4,0-0.9,0-1.6-0.1c-1-0.1-1.7-0.2-1.9-0.2c-0.1,0-0.6,0-1.3,0.1
		c-0.5,0.1-0.9,0.2-1.3,0.2C491.3,154.3,490.7,153.7,490.7,152.5z"/>
	<path d="M520.9,145.5v-4c0-1.7,0.8-2.5,2.2-2.5c1.4,0,2.2,0.9,2.2,2.8c0,4.5-0.6,7.6-1.7,9.4c-1.6,2.4-4.1,3.6-7.7,3.6
		c-3.3,0-5.6-1.1-7-3.2c-1-1.5-1.5-4.1-1.5-7.8v-14.8c0-0.9-0.4-1.3-1.2-1.3h-2c-0.7,0-1.2-0.2-1.7-0.6c-0.4-0.4-0.7-1-0.7-1.6
		c0-0.6,0.2-1.1,0.6-1.5c0.4-0.5,0.9-0.7,1.5-0.7h2.4c0.7,0,1.1-0.4,1.1-1.2v-6.4c0-1.6,0.8-2.3,2.4-2.3c1.5,0,2.2,0.8,2.2,2.3v6.6
		c0,0.6,0.4,0.9,1.1,0.9h6.7c1.6,0,2.3,0.7,2.3,2.2c0,1.5-0.8,2.3-2.5,2.3h-6.8c-0.6,0-0.9,0.4-0.9,1.3v15.2c0,4.3,1.4,6.5,4.3,6.5
		C519.2,150.8,520.7,149,520.9,145.5z"/>
	<path d="M556.5,135.9c0,1.6-0.1,2.5-0.3,2.9c-0.2,0.4-0.8,0.5-1.8,0.5h-19.7c-0.5,0-0.9,0.1-1.1,0.2c-0.2,0.1-0.2,0.4-0.2,0.7
		c0,3.1,0.9,5.7,2.8,7.7c1.9,2.1,4.2,3.1,6.9,3.1c1.8,0,3.5-0.5,5-1.5c1.5-1,2.5-2.2,2.9-3.8l0.6-1.8c0.3-1,1-1.5,2-1.5
		c1.5,0,2.3,0.8,2.3,2.3c0,2.7-1.4,5.1-4.1,7.1c-2.7,2.1-5.8,3.1-9.3,3.1c-4.3,0-7.8-1.5-10.3-4.4c-2.6-2.9-3.8-6.8-3.8-11.7
		c0-5,1.4-9.1,4.1-12.2c2.7-3.1,6.3-4.7,10.6-4.7c3.9,0,7.1,1.3,9.6,3.9C555.2,128.6,556.5,131.9,556.5,135.9z M534,134.3
		c0,0.6,0.5,0.9,1.4,0.9h14.8c0.9,0,1.3-0.3,1.3-0.9c0-2.2-0.8-4.1-2.5-5.7c-1.6-1.6-3.6-2.4-5.8-2.4c-2.3,0-4.4,0.8-6.3,2.5
		S534,132.2,534,134.3z"/>
	<path d="M570.4,124.9v1.7c2.1-3,5-4.5,8.6-4.5c2.9,0,5.2,0.8,7,2.4c1.8,1.6,2.7,3.7,2.7,6.3c0,1.8-0.5,3.3-1.4,4.4
		c-0.9,1.1-2.1,1.7-3.6,1.7c-0.9,0-1.8-0.3-2.4-0.9c-0.7-0.6-1-1.3-1-2.1c0-0.7,0.2-1.2,0.7-1.8c0.5-0.5,1.1-0.8,1.7-0.8
		c0.1,0,0.4,0.1,0.8,0.2c0.2-0.5,0.4-0.9,0.4-1.4c0-1.2-0.5-2.2-1.6-3c-1.1-0.8-2.4-1.2-3.9-1.2c-3.2,0-5.4,1.4-6.4,4.3
		c-0.7,1.8-1,4.4-1,8v4.1c0,2.8,0,4.3,0.1,4.6c0.2,2.3,0.8,3.5,1.9,3.5c0.5,0,1.1-0.1,1.7-0.2c0.5-0.1,0.8-0.2,1.2-0.2
		c1.3,0,2,0.6,2,1.9c0,1.4-0.8,2.1-2.5,2.1h-0.2c-0.6,0-1.6-0.1-2.8-0.2s-2.2-0.2-2.8-0.2c-1.6,0-2.9,0-3.9,0.1l-3.4,0.3
		c-1.7,0-2.5-0.7-2.5-2.2c0-1.3,0.8-1.9,2.4-1.9c0.4,0,0.7,0,0.9,0.1l0.9,0.2c0.4,0.1,0.7,0.1,0.9,0.1c1,0,1.6-0.9,1.7-2.8v-3.2
		l-0.2-14c-0.1-2.4-0.7-3.6-1.9-3.6c-0.3,0-0.8,0.1-1.4,0.2c-0.6,0.1-1,0.2-1.4,0.2c-1.4,0-2-0.7-2-2c0-1.4,0.9-2.2,2.7-2.2
		c0.4,0,1,0.1,1.9,0.2c0.8,0.1,1.4,0.2,1.9,0.2c0.3,0,0.9-0.1,1.6-0.2c0.3-0.1,0.7-0.2,1.2-0.2C569.8,123.1,570.4,123.7,570.4,124.9
		z"/>
</g>
</svg>
